%TF.GenerationSoftware,KiCad,Pcbnew,(5.1.12)-1*%
%TF.CreationDate,2022-05-17T10:57:46-05:00*%
%TF.ProjectId,BMX,424d582e-6b69-4636-9164-5f7063625858,rev?*%
%TF.SameCoordinates,Original*%
%TF.FileFunction,Legend,Bot*%
%TF.FilePolarity,Positive*%
%FSLAX46Y46*%
G04 Gerber Fmt 4.6, Leading zero omitted, Abs format (unit mm)*
G04 Created by KiCad (PCBNEW (5.1.12)-1) date 2022-05-17 10:57:46*
%MOMM*%
%LPD*%
G01*
G04 APERTURE LIST*
%ADD10C,0.120000*%
%ADD11C,0.150000*%
G04 APERTURE END LIST*
D10*
%TO.C,Bateria3v1*%
X44121000Y-92834000D02*
X11001000Y-92834000D01*
X44121000Y-33124000D02*
X44121000Y-92834000D01*
X11001000Y-33124000D02*
X44121000Y-33124000D01*
X11001000Y-92834000D02*
X11001000Y-33124000D01*
X37596000Y-53439000D02*
X32516000Y-53439000D01*
X32516000Y-53439000D02*
X32516000Y-71219000D01*
X32516000Y-71219000D02*
X33786000Y-71219000D01*
X33786000Y-71219000D02*
X33786000Y-72489000D01*
X33786000Y-72489000D02*
X36326000Y-72489000D01*
X36326000Y-72489000D02*
X36326000Y-71219000D01*
X36326000Y-71219000D02*
X37596000Y-71219000D01*
X37596000Y-71219000D02*
X37596000Y-53439000D01*
X18796000Y-72489000D02*
X22606000Y-72489000D01*
X22606000Y-72489000D02*
X22606000Y-54709000D01*
X22606000Y-54709000D02*
X21336000Y-54709000D01*
X21336000Y-54709000D02*
X21336000Y-53439000D01*
X21336000Y-53439000D02*
X18796000Y-53439000D01*
X18796000Y-53439000D02*
X18796000Y-54709000D01*
X18796000Y-54709000D02*
X17526000Y-54709000D01*
X17526000Y-54709000D02*
X17526000Y-72489000D01*
X17526000Y-72489000D02*
X18796000Y-72489000D01*
X27307000Y-34394000D02*
X27307000Y-91564000D01*
X27815000Y-91564000D02*
X27815000Y-34394000D01*
X40311000Y-53439000D02*
X42851000Y-53439000D01*
X42851000Y-53439000D02*
X42851000Y-72489000D01*
X42851000Y-72489000D02*
X40311000Y-72489000D01*
X14811000Y-85189000D02*
X14811000Y-72489000D01*
X14811000Y-72489000D02*
X12271000Y-72489000D01*
X12271000Y-72489000D02*
X12271000Y-53439000D01*
X12271000Y-53439000D02*
X14811000Y-53439000D01*
X40311000Y-85189000D02*
X40311000Y-72489000D01*
X14811000Y-40739000D02*
X14811000Y-53439000D01*
X14811000Y-40739000D02*
X12271000Y-40739000D01*
X12271000Y-40739000D02*
X12271000Y-34394000D01*
X12271000Y-34394000D02*
X42851000Y-34394000D01*
X42851000Y-34394000D02*
X42851000Y-40739000D01*
X42851000Y-40739000D02*
X40311000Y-40739000D01*
X40311000Y-40739000D02*
X40311000Y-53439000D01*
X12271000Y-91564000D02*
X12271000Y-85189000D01*
X12271000Y-85189000D02*
X14811000Y-85189000D01*
X12271000Y-91564000D02*
X42851000Y-91564000D01*
X42851000Y-91564000D02*
X42851000Y-85189000D01*
X42851000Y-85189000D02*
X40311000Y-85189000D01*
D11*
X31114571Y-31932571D02*
X30971714Y-31980190D01*
X30924095Y-32027809D01*
X30876476Y-32123047D01*
X30876476Y-32265904D01*
X30924095Y-32361142D01*
X30971714Y-32408761D01*
X31066952Y-32456380D01*
X31447904Y-32456380D01*
X31447904Y-31456380D01*
X31114571Y-31456380D01*
X31019333Y-31504000D01*
X30971714Y-31551619D01*
X30924095Y-31646857D01*
X30924095Y-31742095D01*
X30971714Y-31837333D01*
X31019333Y-31884952D01*
X31114571Y-31932571D01*
X31447904Y-31932571D01*
X30019333Y-32456380D02*
X30019333Y-31932571D01*
X30066952Y-31837333D01*
X30162190Y-31789714D01*
X30352666Y-31789714D01*
X30447904Y-31837333D01*
X30019333Y-32408761D02*
X30114571Y-32456380D01*
X30352666Y-32456380D01*
X30447904Y-32408761D01*
X30495523Y-32313523D01*
X30495523Y-32218285D01*
X30447904Y-32123047D01*
X30352666Y-32075428D01*
X30114571Y-32075428D01*
X30019333Y-32027809D01*
X29686000Y-31789714D02*
X29305047Y-31789714D01*
X29543142Y-31456380D02*
X29543142Y-32313523D01*
X29495523Y-32408761D01*
X29400285Y-32456380D01*
X29305047Y-32456380D01*
X28590761Y-32408761D02*
X28686000Y-32456380D01*
X28876476Y-32456380D01*
X28971714Y-32408761D01*
X29019333Y-32313523D01*
X29019333Y-31932571D01*
X28971714Y-31837333D01*
X28876476Y-31789714D01*
X28686000Y-31789714D01*
X28590761Y-31837333D01*
X28543142Y-31932571D01*
X28543142Y-32027809D01*
X29019333Y-32123047D01*
X28114571Y-32456380D02*
X28114571Y-31789714D01*
X28114571Y-31980190D02*
X28066952Y-31884952D01*
X28019333Y-31837333D01*
X27924095Y-31789714D01*
X27828857Y-31789714D01*
X27495523Y-32456380D02*
X27495523Y-31789714D01*
X27495523Y-31456380D02*
X27543142Y-31504000D01*
X27495523Y-31551619D01*
X27447904Y-31504000D01*
X27495523Y-31456380D01*
X27495523Y-31551619D01*
X26590761Y-32456380D02*
X26590761Y-31932571D01*
X26638380Y-31837333D01*
X26733619Y-31789714D01*
X26924095Y-31789714D01*
X27019333Y-31837333D01*
X26590761Y-32408761D02*
X26686000Y-32456380D01*
X26924095Y-32456380D01*
X27019333Y-32408761D01*
X27066952Y-32313523D01*
X27066952Y-32218285D01*
X27019333Y-32123047D01*
X26924095Y-32075428D01*
X26686000Y-32075428D01*
X26590761Y-32027809D01*
X26209809Y-31456380D02*
X25590761Y-31456380D01*
X25924095Y-31837333D01*
X25781238Y-31837333D01*
X25686000Y-31884952D01*
X25638380Y-31932571D01*
X25590761Y-32027809D01*
X25590761Y-32265904D01*
X25638380Y-32361142D01*
X25686000Y-32408761D01*
X25781238Y-32456380D01*
X26066952Y-32456380D01*
X26162190Y-32408761D01*
X26209809Y-32361142D01*
X25257428Y-31789714D02*
X25019333Y-32456380D01*
X24781238Y-31789714D01*
X23876476Y-32456380D02*
X24447904Y-32456380D01*
X24162190Y-32456380D02*
X24162190Y-31456380D01*
X24257428Y-31599238D01*
X24352666Y-31694476D01*
X24447904Y-31742095D01*
X35163142Y-31432571D02*
X35163142Y-32575428D01*
X20173142Y-31432571D02*
X20173142Y-32575428D01*
X20744571Y-32004000D02*
X19601714Y-32004000D01*
X35163142Y-51597571D02*
X35163142Y-52740428D01*
X35163142Y-73187571D02*
X35163142Y-74330428D01*
X35734571Y-73759000D02*
X34591714Y-73759000D01*
X20173142Y-51597571D02*
X20173142Y-52740428D01*
X20744571Y-52169000D02*
X19601714Y-52169000D01*
X20173142Y-73187571D02*
X20173142Y-74330428D01*
%TD*%
M02*
