M48
; DRILL file {KiCad (5.1.12)-1} date 05/17/22 10:57:43
; FORMAT={-:-/ absolute / metric / decimal}
; #@! TF.CreationDate,2022-05-17T10:57:43-05:00
; #@! TF.GenerationSoftware,Kicad,Pcbnew,(5.1.12)-1
; #@! TF.FileFunction,Plated,1,2,PTH
FMAT,2
METRIC
T1C0.800
T2C0.900
T3C1.000
T4C1.100
T5C1.540
%
G90
G05
T1
X5.364Y-40.912
X5.364Y-51.072
T2
X12.189Y-68.161
X12.189Y-70.701
X12.189Y-73.241
X12.189Y-75.781
X12.189Y-78.321
X12.189Y-80.861
X12.189Y-83.401
X12.189Y-85.941
X12.189Y-88.481
X14.729Y-65.621
X14.729Y-68.161
X14.729Y-70.701
X14.729Y-73.241
X14.729Y-75.781
X14.729Y-78.321
X14.729Y-80.861
X14.729Y-85.941
X14.729Y-88.481
X37.589Y-65.621
X37.589Y-68.161
X37.589Y-70.701
X37.589Y-73.241
X37.589Y-85.941
X37.589Y-88.481
X40.129Y-68.161
X40.129Y-83.401
X40.129Y-85.941
X40.129Y-88.481
T3
X2.822Y-73.355
X2.822Y-75.895
X2.822Y-78.435
X12.189Y-65.621
X14.729Y-83.401
X20.066Y-35.814
X35.056Y-35.814
X37.589Y-75.781
X37.589Y-78.321
X37.589Y-80.861
X37.589Y-83.401
X40.129Y-65.621
X40.129Y-70.701
X40.129Y-73.241
X40.129Y-75.781
X40.129Y-78.321
X40.129Y-80.861
X48.644Y-78.334
X48.644Y-80.874
X48.644Y-83.414
T4
X48.019Y-46.258
X50.559Y-46.258
X53.099Y-46.258
T5
X12.335Y-38.652
X12.335Y-52.852
X35.235Y-38.652
X35.235Y-42.152
X35.235Y-49.752
X35.235Y-53.152
T0
M30
