%TF.GenerationSoftware,KiCad,Pcbnew,(5.1.12)-1*%
%TF.CreationDate,2022-05-17T10:57:46-05:00*%
%TF.ProjectId,BMX,424d582e-6b69-4636-9164-5f7063625858,rev?*%
%TF.SameCoordinates,Original*%
%TF.FileFunction,Copper,L1,Top*%
%TF.FilePolarity,Positive*%
%FSLAX46Y46*%
G04 Gerber Fmt 4.6, Leading zero omitted, Abs format (unit mm)*
G04 Created by KiCad (PCBNEW (5.1.12)-1) date 2022-05-17 10:57:46*
%MOMM*%
%LPD*%
G01*
G04 APERTURE LIST*
%TA.AperFunction,ComponentPad*%
%ADD10O,1.600000X1.600000*%
%TD*%
%TA.AperFunction,ComponentPad*%
%ADD11C,1.600000*%
%TD*%
%TA.AperFunction,ComponentPad*%
%ADD12O,1.905000X2.000000*%
%TD*%
%TA.AperFunction,ComponentPad*%
%ADD13R,1.905000X2.000000*%
%TD*%
%TA.AperFunction,ComponentPad*%
%ADD14C,1.800000*%
%TD*%
%TA.AperFunction,ComponentPad*%
%ADD15O,2.000000X1.800000*%
%TD*%
%TA.AperFunction,ComponentPad*%
%ADD16O,1.500000X1.800000*%
%TD*%
%TA.AperFunction,ComponentPad*%
%ADD17R,1.500000X2.000000*%
%TD*%
%TA.AperFunction,ComponentPad*%
%ADD18O,1.500000X2.000000*%
%TD*%
%TA.AperFunction,ComponentPad*%
%ADD19C,1.700000*%
%TD*%
%TA.AperFunction,ComponentPad*%
%ADD20R,2.000000X1.800000*%
%TD*%
%TA.AperFunction,ComponentPad*%
%ADD21R,2.800000X2.800000*%
%TD*%
%TA.AperFunction,Conductor*%
%ADD22C,0.800000*%
%TD*%
%TA.AperFunction,Conductor*%
%ADD23C,0.500000*%
%TD*%
G04 APERTURE END LIST*
D10*
%TO.P,R1,2*%
%TO.N,Net-(R1-Pad2)*%
X5364480Y-40911780D03*
D11*
%TO.P,R1,1*%
%TO.N,GND*%
X5364480Y-51071780D03*
%TD*%
D12*
%TO.P,Q1,3*%
%TO.N,Net-(Bateria3v1-Pad2)*%
X48018700Y-46258480D03*
%TO.P,Q1,2*%
%TO.N,Net-(NEOpixel1-Pad1)*%
X50558700Y-46258480D03*
D13*
%TO.P,Q1,1*%
%TO.N,Net-(CargadoUSB1-Pad1)*%
X53098700Y-46258480D03*
%TD*%
D14*
%TO.P,U1,40*%
%TO.N,Net-(U1-Pad40)*%
X40129460Y-88480900D03*
%TO.P,U1,39*%
%TO.N,Net-(U1-Pad39)*%
X37589460Y-88480900D03*
%TO.P,U1,38*%
%TO.N,Net-(U1-Pad38)*%
X40129460Y-85940900D03*
%TO.P,U1,37*%
%TO.N,Net-(U1-Pad37)*%
X37589460Y-85940900D03*
%TO.P,U1,36*%
%TO.N,Net-(U1-Pad36)*%
X40129460Y-83400900D03*
D15*
%TO.P,U1,35*%
%TO.N,Net-(CargadoUSB1-Pad3)*%
X37589460Y-83400900D03*
D16*
%TO.P,U1,34*%
%TO.N,Net-(U1-Pad34)*%
X40129460Y-80860900D03*
D17*
%TO.P,U1,33*%
%TO.N,GND*%
X37589460Y-80860900D03*
D18*
%TO.P,U1,32*%
%TO.N,Net-(U1-Pad32)*%
X40129460Y-78320900D03*
D16*
%TO.P,U1,31*%
%TO.N,Net-(U1-Pad31)*%
X37589460Y-78320900D03*
D18*
%TO.P,U1,30*%
%TO.N,Net-(U1-Pad30)*%
X40129460Y-75780900D03*
%TO.P,U1,29*%
%TO.N,Net-(U1-Pad29)*%
X37589460Y-75780900D03*
%TO.P,U1,28*%
%TO.N,/IN*%
X40129460Y-73240900D03*
D19*
%TO.P,U1,27*%
%TO.N,Net-(U1-Pad27)*%
X37589460Y-73240900D03*
D15*
%TO.P,U1,26*%
%TO.N,Net-(CargadoUSB1-Pad3)*%
X40129460Y-70700900D03*
D14*
%TO.P,U1,25*%
%TO.N,Net-(U1-Pad25)*%
X37589460Y-70700900D03*
%TO.P,U1,24*%
%TO.N,Net-(U1-Pad24)*%
X40129460Y-68160900D03*
%TO.P,U1,23*%
%TO.N,Net-(U1-Pad23)*%
X37589460Y-68160900D03*
D20*
%TO.P,U1,22*%
%TO.N,GND*%
X40129460Y-65620900D03*
D14*
%TO.P,U1,21*%
%TO.N,Net-(U1-Pad21)*%
X37589460Y-65620900D03*
%TO.P,U1,20*%
%TO.N,Net-(U1-Pad20)*%
X14729460Y-88480900D03*
%TO.P,U1,19*%
%TO.N,Net-(U1-Pad19)*%
X12189460Y-88480900D03*
%TO.P,U1,18*%
%TO.N,Net-(U1-Pad18)*%
X14729460Y-85940900D03*
%TO.P,U1,17*%
%TO.N,Net-(U1-Pad17)*%
X12189460Y-85940900D03*
D15*
%TO.P,U1,16*%
%TO.N,Net-(NEOpixel1-Pad1)*%
X14729460Y-83400900D03*
D14*
%TO.P,U1,15*%
%TO.N,Net-(U1-Pad15)*%
X12189460Y-83400900D03*
%TO.P,U1,14*%
%TO.N,Net-(U1-Pad14)*%
X14729460Y-80860900D03*
%TO.P,U1,13*%
%TO.N,Net-(U1-Pad13)*%
X12189460Y-80860900D03*
%TO.P,U1,12*%
%TO.N,Net-(U1-Pad12)*%
X14729460Y-78320900D03*
%TO.P,U1,11*%
%TO.N,Net-(U1-Pad11)*%
X12189460Y-78320900D03*
%TO.P,U1,10*%
%TO.N,Net-(U1-Pad10)*%
X14729460Y-75780900D03*
D15*
%TO.P,U1,9*%
%TO.N,Net-(NEOpixel1-Pad3)*%
X12189460Y-75780900D03*
D14*
%TO.P,U1,8*%
%TO.N,Net-(U1-Pad8)*%
X14729460Y-73240900D03*
%TO.P,U1,7*%
%TO.N,Net-(U1-Pad7)*%
X12189460Y-73240900D03*
%TO.P,U1,6*%
%TO.N,Net-(U1-Pad6)*%
X14729460Y-70700900D03*
%TO.P,U1,5*%
%TO.N,Net-(U1-Pad5)*%
X12189460Y-70700900D03*
D19*
%TO.P,U1,4*%
%TO.N,Net-(U1-Pad4)*%
X14729460Y-68160900D03*
%TO.P,U1,3*%
%TO.N,Net-(U1-Pad3)*%
X12189460Y-68160900D03*
D20*
%TO.P,U1,1*%
%TO.N,GND*%
X12189460Y-65620900D03*
D19*
%TO.P,U1,2*%
%TO.N,Net-(U1-Pad2)*%
X14729460Y-65620900D03*
%TD*%
D15*
%TO.P,Bateria3v1,2*%
%TO.N,Net-(Bateria3v1-Pad2)*%
X35056000Y-35814000D03*
D20*
%TO.P,Bateria3v1,1*%
%TO.N,Net-(Bateria3v1-Pad1)*%
X20066000Y-35814000D03*
%TD*%
D21*
%TO.P,CargadoUSB1,1*%
%TO.N,Net-(CargadoUSB1-Pad1)*%
X12334980Y-38651920D03*
%TO.P,CargadoUSB1,2*%
%TO.N,GND*%
X12334980Y-52851920D03*
%TO.P,CargadoUSB1,3*%
%TO.N,Net-(CargadoUSB1-Pad3)*%
X35234980Y-38651920D03*
%TO.P,CargadoUSB1,4*%
%TO.N,GND*%
X35234980Y-53151920D03*
%TO.P,CargadoUSB1,5*%
%TO.N,Net-(Bateria3v1-Pad2)*%
X35234980Y-42151920D03*
%TO.P,CargadoUSB1,6*%
%TO.N,Net-(Bateria3v1-Pad1)*%
X35234980Y-49751920D03*
%TD*%
D15*
%TO.P,RPM1,3*%
%TO.N,Net-(NEOpixel1-Pad1)*%
X48643540Y-83413600D03*
%TO.P,RPM1,2*%
%TO.N,/IN*%
X48643540Y-80873600D03*
D20*
%TO.P,RPM1,1*%
%TO.N,GND*%
X48643540Y-78333600D03*
%TD*%
D15*
%TO.P,NEOpixel1,3*%
%TO.N,Net-(NEOpixel1-Pad3)*%
X2821940Y-73355200D03*
D20*
%TO.P,NEOpixel1,2*%
%TO.N,GND*%
X2821940Y-75895200D03*
D15*
%TO.P,NEOpixel1,1*%
%TO.N,Net-(NEOpixel1-Pad1)*%
X2821940Y-78435200D03*
%TD*%
D22*
%TO.N,/IN*%
X50443540Y-80873600D02*
X48643540Y-80873600D01*
X52311300Y-79005840D02*
X50443540Y-80873600D01*
X52311300Y-75636120D02*
X52311300Y-79005840D01*
X49893220Y-73218040D02*
X52311300Y-75636120D01*
X40284400Y-73218040D02*
X49893220Y-73218040D01*
%TO.N,Net-(NEOpixel1-Pad3)*%
X2821940Y-73355200D02*
X4678680Y-73355200D01*
X4678680Y-73355200D02*
X7081520Y-75758040D01*
X7081520Y-75758040D02*
X12344400Y-75758040D01*
%TO.N,GND*%
X12306300Y-65636140D02*
X12344400Y-65598040D01*
X35234980Y-53151920D02*
X35234980Y-59639300D01*
X35234980Y-59639300D02*
X35295840Y-59700160D01*
X2821940Y-75895200D02*
X929640Y-75895200D01*
X929640Y-75895200D02*
X-1031240Y-73934320D01*
X-1031240Y-73934320D02*
X-1031240Y-69786500D01*
X-1031240Y-69786500D02*
X3157220Y-65598040D01*
X35295840Y-59700160D02*
X30294580Y-59700160D01*
X30294580Y-59700160D02*
X14777720Y-59700160D01*
X14777720Y-59700160D02*
X12344400Y-62133480D01*
X12344400Y-62133480D02*
X12344400Y-65598040D01*
X3157220Y-65598040D02*
X12344400Y-65598040D01*
X48643540Y-78333600D02*
X46349920Y-78333600D01*
X46349920Y-78333600D02*
X43952160Y-80731360D01*
X43952160Y-80731360D02*
X43952160Y-88516460D01*
X43952160Y-88516460D02*
X41605200Y-90863420D01*
X41605200Y-90863420D02*
X35018980Y-90863420D01*
X35018980Y-90863420D02*
X33190180Y-89034620D01*
X25656540Y-64338200D02*
X30294580Y-59700160D01*
X25656540Y-69146420D02*
X25656540Y-64338200D01*
X33190180Y-89034620D02*
X33190180Y-85392260D01*
X37744400Y-80838040D02*
X37348160Y-80838040D01*
X33190180Y-85392260D02*
X37744400Y-80838040D01*
X37348160Y-80838040D02*
X25656540Y-69146420D01*
X38252400Y-59700160D02*
X35295840Y-59700160D01*
X40284400Y-61732160D02*
X38252400Y-59700160D01*
X40284400Y-65598040D02*
X40284400Y-61732160D01*
X10554840Y-51071780D02*
X12334980Y-52851920D01*
X5364480Y-51071780D02*
X10554840Y-51071780D01*
X12334980Y-57257420D02*
X14777720Y-59700160D01*
X12334980Y-52851920D02*
X12334980Y-57257420D01*
%TO.N,Net-(Bateria3v1-Pad2)*%
X35234980Y-42151920D02*
X32426260Y-42151920D01*
X32426260Y-42151920D02*
X30939740Y-40665400D01*
X30939740Y-40665400D02*
X30939740Y-38135560D01*
X33261300Y-35814000D02*
X35056000Y-35814000D01*
X30939740Y-38135560D02*
X33261300Y-35814000D01*
X48018700Y-46258480D02*
X48018700Y-43113960D01*
X48018700Y-43113960D02*
X40759380Y-35854640D01*
X35096640Y-35854640D02*
X35056000Y-35814000D01*
X40759380Y-35854640D02*
X35096640Y-35854640D01*
%TO.N,Net-(Bateria3v1-Pad1)*%
X20066000Y-35814000D02*
X20066000Y-43289220D01*
X26528700Y-49751920D02*
X35234980Y-49751920D01*
X20066000Y-43289220D02*
X26528700Y-49751920D01*
%TO.N,Net-(CargadoUSB1-Pad1)*%
X12334980Y-38651920D02*
X12341120Y-38651920D01*
X12341120Y-38651920D02*
X17962880Y-33030160D01*
X17962880Y-33030160D02*
X42148760Y-33030160D01*
X53098700Y-43980100D02*
X53098700Y-46258480D01*
X42148760Y-33030160D02*
X53098700Y-43980100D01*
X10075120Y-40911780D02*
X12334980Y-38651920D01*
X5364480Y-40911780D02*
X10075120Y-40911780D01*
%TO.N,Net-(CargadoUSB1-Pad3)*%
X40129460Y-70700900D02*
X44256960Y-66573400D01*
X41230020Y-38651920D02*
X35234980Y-38651920D01*
D23*
X40129460Y-70700900D02*
X38905180Y-71925180D01*
X38905180Y-71925180D02*
X38905180Y-82085180D01*
X38905180Y-82085180D02*
X37589460Y-83400900D01*
D22*
X44256960Y-41678860D02*
X41230020Y-38651920D01*
X44256960Y-66573400D02*
X44256960Y-41678860D01*
%TO.N,Net-(NEOpixel1-Pad1)*%
X48643540Y-83413600D02*
X48643540Y-86339680D01*
X48643540Y-86339680D02*
X42095420Y-92887800D01*
X2821940Y-83261200D02*
X2821940Y-78435200D01*
X12448540Y-92887800D02*
X2821940Y-83261200D01*
X14729460Y-83400900D02*
X19296380Y-83400900D01*
X22598380Y-86702900D02*
X22598380Y-92887800D01*
X19296380Y-83400900D02*
X22598380Y-86702900D01*
X22598380Y-92887800D02*
X12448540Y-92887800D01*
X42095420Y-92887800D02*
X22598380Y-92887800D01*
X48643540Y-83413600D02*
X52179220Y-83413600D01*
X52179220Y-83413600D02*
X54236620Y-81356200D01*
X54236620Y-81356200D02*
X54236620Y-57876440D01*
X50558700Y-54198520D02*
X50558700Y-46258480D01*
X54236620Y-57876440D02*
X50558700Y-54198520D01*
%TD*%
M02*
