%TF.GenerationSoftware,KiCad,Pcbnew,(5.1.12)-1*%
%TF.CreationDate,2022-05-17T10:57:46-05:00*%
%TF.ProjectId,BMX,424d582e-6b69-4636-9164-5f7063625858,rev?*%
%TF.SameCoordinates,Original*%
%TF.FileFunction,Legend,Top*%
%TF.FilePolarity,Positive*%
%FSLAX46Y46*%
G04 Gerber Fmt 4.6, Leading zero omitted, Abs format (unit mm)*
G04 Created by KiCad (PCBNEW (5.1.12)-1) date 2022-05-17 10:57:46*
%MOMM*%
%LPD*%
G01*
G04 APERTURE LIST*
%ADD10C,0.120000*%
%ADD11C,0.100000*%
%ADD12C,0.150000*%
G04 APERTURE END LIST*
D10*
%TO.C,R1*%
X5364480Y-41951780D02*
X5364480Y-42721780D01*
X5364480Y-50031780D02*
X5364480Y-49261780D01*
X3994480Y-42721780D02*
X3994480Y-49261780D01*
X6734480Y-42721780D02*
X3994480Y-42721780D01*
X6734480Y-49261780D02*
X6734480Y-42721780D01*
X3994480Y-49261780D02*
X6734480Y-49261780D01*
%TO.C,Q1*%
X55678700Y-49948480D02*
X45438700Y-49948480D01*
X55678700Y-65838480D02*
X45438700Y-65838480D01*
X55678700Y-65838480D02*
X55678700Y-49948480D01*
X45438700Y-65838480D02*
X45438700Y-49948480D01*
X53098700Y-49948480D02*
X53098700Y-47408480D01*
X50558700Y-49948480D02*
X50558700Y-47408480D01*
X48018700Y-49948480D02*
X48018700Y-47408480D01*
%TO.C,U1*%
X31239460Y-92290900D02*
X31239460Y-94830900D01*
X21079460Y-92290900D02*
X31239460Y-92290900D01*
X21079460Y-94830900D02*
X21079460Y-92290900D01*
X31239460Y-101180900D02*
X31239460Y-94830900D01*
X21079460Y-101180900D02*
X31239460Y-101180900D01*
X21079460Y-94830900D02*
X21079460Y-101180900D01*
X13459460Y-94830900D02*
X41399460Y-94830900D01*
D11*
G36*
X12189460Y-93560900D02*
G01*
X12189460Y-91020900D01*
X13459460Y-91020900D01*
X13459460Y-93560900D01*
X12189460Y-93560900D01*
G37*
X12189460Y-93560900D02*
X12189460Y-91020900D01*
X13459460Y-91020900D01*
X13459460Y-93560900D01*
X12189460Y-93560900D01*
D10*
X10919460Y-89750900D02*
X13459460Y-89750900D01*
X10919460Y-60540900D02*
X10919460Y-89750900D01*
X41399460Y-60540900D02*
X41399460Y-94830900D01*
X13459460Y-58000900D02*
X14729460Y-58000900D01*
X13459460Y-58000900D02*
X10919460Y-60540900D01*
X38859460Y-58000900D02*
X41399460Y-60540900D01*
X38859460Y-58000900D02*
X14729460Y-58000900D01*
X13459460Y-89750900D02*
X13459460Y-94830900D01*
D12*
%TO.C,CargadoUSB1*%
X36734980Y-39451920D02*
X36734980Y-52351920D01*
X36734980Y-52351920D02*
X37034980Y-52351920D01*
X36934980Y-52351920D02*
X39034980Y-52351920D01*
X39034980Y-52351920D02*
X39034980Y-52651920D01*
X36934980Y-36951920D02*
X39034980Y-36951920D01*
X39034980Y-36951920D02*
X39034980Y-39451920D01*
X39034980Y-39451920D02*
X36734980Y-39451920D01*
X39034980Y-52651920D02*
X39034980Y-54751920D01*
X39034980Y-54751920D02*
X10634980Y-54751920D01*
X10634980Y-54751920D02*
X10634980Y-36951920D01*
X11034980Y-44151920D02*
X13534980Y-44151920D01*
X13534980Y-44151920D02*
X13534980Y-47951920D01*
X13534980Y-47951920D02*
X11034980Y-47951920D01*
X11034980Y-47951920D02*
X11034980Y-44251920D01*
X10634980Y-36951920D02*
X36934980Y-36951920D01*
D10*
%TO.C,RPM1*%
X47313540Y-77003600D02*
X48643540Y-77003600D01*
X47313540Y-78333600D02*
X47313540Y-77003600D01*
X47313540Y-79603600D02*
X49973540Y-79603600D01*
X49973540Y-79603600D02*
X49973540Y-84743600D01*
X47313540Y-79603600D02*
X47313540Y-84743600D01*
X47313540Y-84743600D02*
X49973540Y-84743600D01*
%TO.C,NEOpixel1*%
X4151940Y-79765200D02*
X2821940Y-79765200D01*
X4151940Y-78435200D02*
X4151940Y-79765200D01*
X4151940Y-77165200D02*
X1491940Y-77165200D01*
X1491940Y-77165200D02*
X1491940Y-72025200D01*
X4151940Y-77165200D02*
X4151940Y-72025200D01*
X4151940Y-72025200D02*
X1491940Y-72025200D01*
%TO.C,R1*%
D12*
X3446860Y-46158446D02*
X2970670Y-46491780D01*
X3446860Y-46729875D02*
X2446860Y-46729875D01*
X2446860Y-46348922D01*
X2494480Y-46253684D01*
X2542099Y-46206065D01*
X2637337Y-46158446D01*
X2780194Y-46158446D01*
X2875432Y-46206065D01*
X2923051Y-46253684D01*
X2970670Y-46348922D01*
X2970670Y-46729875D01*
X3446860Y-45206065D02*
X3446860Y-45777494D01*
X3446860Y-45491780D02*
X2446860Y-45491780D01*
X2589718Y-45587018D01*
X2684956Y-45682256D01*
X2732575Y-45777494D01*
%TO.C,Q1*%
X50463461Y-67386099D02*
X50368223Y-67338480D01*
X50272985Y-67243241D01*
X50130128Y-67100384D01*
X50034890Y-67052765D01*
X49939652Y-67052765D01*
X49987271Y-67290860D02*
X49892033Y-67243241D01*
X49796795Y-67148003D01*
X49749176Y-66957527D01*
X49749176Y-66624194D01*
X49796795Y-66433718D01*
X49892033Y-66338480D01*
X49987271Y-66290860D01*
X50177747Y-66290860D01*
X50272985Y-66338480D01*
X50368223Y-66433718D01*
X50415842Y-66624194D01*
X50415842Y-66957527D01*
X50368223Y-67148003D01*
X50272985Y-67243241D01*
X50177747Y-67290860D01*
X49987271Y-67290860D01*
X51368223Y-67290860D02*
X50796795Y-67290860D01*
X51082509Y-67290860D02*
X51082509Y-66290860D01*
X50987271Y-66433718D01*
X50892033Y-66528956D01*
X50796795Y-66576575D01*
%TO.C,U1*%
X21587555Y-77773280D02*
X21587555Y-78582804D01*
X21635174Y-78678042D01*
X21682793Y-78725661D01*
X21778031Y-78773280D01*
X21968507Y-78773280D01*
X22063745Y-78725661D01*
X22111364Y-78678042D01*
X22158983Y-78582804D01*
X22158983Y-77773280D01*
X23158983Y-78773280D02*
X22587555Y-78773280D01*
X22873269Y-78773280D02*
X22873269Y-77773280D01*
X22778031Y-77916138D01*
X22682793Y-78011376D01*
X22587555Y-78058995D01*
X24897555Y-96823280D02*
X24897555Y-97632804D01*
X24945174Y-97728042D01*
X24992793Y-97775661D01*
X25088031Y-97823280D01*
X25278507Y-97823280D01*
X25373745Y-97775661D01*
X25421364Y-97728042D01*
X25468983Y-97632804D01*
X25468983Y-96823280D01*
X25897555Y-97775661D02*
X26040412Y-97823280D01*
X26278507Y-97823280D01*
X26373745Y-97775661D01*
X26421364Y-97728042D01*
X26468983Y-97632804D01*
X26468983Y-97537566D01*
X26421364Y-97442328D01*
X26373745Y-97394709D01*
X26278507Y-97347090D01*
X26088031Y-97299471D01*
X25992793Y-97251852D01*
X25945174Y-97204233D01*
X25897555Y-97108995D01*
X25897555Y-97013757D01*
X25945174Y-96918519D01*
X25992793Y-96870900D01*
X26088031Y-96823280D01*
X26326126Y-96823280D01*
X26468983Y-96870900D01*
X27230888Y-97299471D02*
X27373745Y-97347090D01*
X27421364Y-97394709D01*
X27468983Y-97489947D01*
X27468983Y-97632804D01*
X27421364Y-97728042D01*
X27373745Y-97775661D01*
X27278507Y-97823280D01*
X26897555Y-97823280D01*
X26897555Y-96823280D01*
X27230888Y-96823280D01*
X27326126Y-96870900D01*
X27373745Y-96918519D01*
X27421364Y-97013757D01*
X27421364Y-97108995D01*
X27373745Y-97204233D01*
X27326126Y-97251852D01*
X27230888Y-97299471D01*
X26897555Y-97299471D01*
X14181840Y-92743280D02*
X13848507Y-92267090D01*
X13610412Y-92743280D02*
X13610412Y-91743280D01*
X13991364Y-91743280D01*
X14086602Y-91790900D01*
X14134221Y-91838519D01*
X14181840Y-91933757D01*
X14181840Y-92076614D01*
X14134221Y-92171852D01*
X14086602Y-92219471D01*
X13991364Y-92267090D01*
X13610412Y-92267090D01*
X14562793Y-92695661D02*
X14705650Y-92743280D01*
X14943745Y-92743280D01*
X15038983Y-92695661D01*
X15086602Y-92648042D01*
X15134221Y-92552804D01*
X15134221Y-92457566D01*
X15086602Y-92362328D01*
X15038983Y-92314709D01*
X14943745Y-92267090D01*
X14753269Y-92219471D01*
X14658031Y-92171852D01*
X14610412Y-92124233D01*
X14562793Y-92028995D01*
X14562793Y-91933757D01*
X14610412Y-91838519D01*
X14658031Y-91790900D01*
X14753269Y-91743280D01*
X14991364Y-91743280D01*
X15134221Y-91790900D01*
X15419936Y-91743280D02*
X15991364Y-91743280D01*
X15705650Y-92743280D02*
X15705650Y-91743280D01*
%TO.C,CargadoUSB1*%
X16061584Y-48352982D02*
X16013965Y-48400601D01*
X15871108Y-48448220D01*
X15775870Y-48448220D01*
X15633013Y-48400601D01*
X15537775Y-48305363D01*
X15490156Y-48210125D01*
X15442537Y-48019649D01*
X15442537Y-47876792D01*
X15490156Y-47686316D01*
X15537775Y-47591078D01*
X15633013Y-47495840D01*
X15775870Y-47448220D01*
X15871108Y-47448220D01*
X16013965Y-47495840D01*
X16061584Y-47543459D01*
X16918727Y-48448220D02*
X16918727Y-47924411D01*
X16871108Y-47829173D01*
X16775870Y-47781554D01*
X16585394Y-47781554D01*
X16490156Y-47829173D01*
X16918727Y-48400601D02*
X16823489Y-48448220D01*
X16585394Y-48448220D01*
X16490156Y-48400601D01*
X16442537Y-48305363D01*
X16442537Y-48210125D01*
X16490156Y-48114887D01*
X16585394Y-48067268D01*
X16823489Y-48067268D01*
X16918727Y-48019649D01*
X17394918Y-48448220D02*
X17394918Y-47781554D01*
X17394918Y-47972030D02*
X17442537Y-47876792D01*
X17490156Y-47829173D01*
X17585394Y-47781554D01*
X17680632Y-47781554D01*
X18442537Y-47781554D02*
X18442537Y-48591078D01*
X18394918Y-48686316D01*
X18347299Y-48733935D01*
X18252060Y-48781554D01*
X18109203Y-48781554D01*
X18013965Y-48733935D01*
X18442537Y-48400601D02*
X18347299Y-48448220D01*
X18156822Y-48448220D01*
X18061584Y-48400601D01*
X18013965Y-48352982D01*
X17966346Y-48257744D01*
X17966346Y-47972030D01*
X18013965Y-47876792D01*
X18061584Y-47829173D01*
X18156822Y-47781554D01*
X18347299Y-47781554D01*
X18442537Y-47829173D01*
X19347299Y-48448220D02*
X19347299Y-47924411D01*
X19299680Y-47829173D01*
X19204441Y-47781554D01*
X19013965Y-47781554D01*
X18918727Y-47829173D01*
X19347299Y-48400601D02*
X19252060Y-48448220D01*
X19013965Y-48448220D01*
X18918727Y-48400601D01*
X18871108Y-48305363D01*
X18871108Y-48210125D01*
X18918727Y-48114887D01*
X19013965Y-48067268D01*
X19252060Y-48067268D01*
X19347299Y-48019649D01*
X20252060Y-48448220D02*
X20252060Y-47448220D01*
X20252060Y-48400601D02*
X20156822Y-48448220D01*
X19966346Y-48448220D01*
X19871108Y-48400601D01*
X19823489Y-48352982D01*
X19775870Y-48257744D01*
X19775870Y-47972030D01*
X19823489Y-47876792D01*
X19871108Y-47829173D01*
X19966346Y-47781554D01*
X20156822Y-47781554D01*
X20252060Y-47829173D01*
X20871108Y-48448220D02*
X20775870Y-48400601D01*
X20728251Y-48352982D01*
X20680632Y-48257744D01*
X20680632Y-47972030D01*
X20728251Y-47876792D01*
X20775870Y-47829173D01*
X20871108Y-47781554D01*
X21013965Y-47781554D01*
X21109203Y-47829173D01*
X21156822Y-47876792D01*
X21204441Y-47972030D01*
X21204441Y-48257744D01*
X21156822Y-48352982D01*
X21109203Y-48400601D01*
X21013965Y-48448220D01*
X20871108Y-48448220D01*
X21633013Y-47448220D02*
X21633013Y-48257744D01*
X21680632Y-48352982D01*
X21728251Y-48400601D01*
X21823489Y-48448220D01*
X22013965Y-48448220D01*
X22109203Y-48400601D01*
X22156822Y-48352982D01*
X22204441Y-48257744D01*
X22204441Y-47448220D01*
X22633013Y-48400601D02*
X22775870Y-48448220D01*
X23013965Y-48448220D01*
X23109203Y-48400601D01*
X23156822Y-48352982D01*
X23204441Y-48257744D01*
X23204441Y-48162506D01*
X23156822Y-48067268D01*
X23109203Y-48019649D01*
X23013965Y-47972030D01*
X22823489Y-47924411D01*
X22728251Y-47876792D01*
X22680632Y-47829173D01*
X22633013Y-47733935D01*
X22633013Y-47638697D01*
X22680632Y-47543459D01*
X22728251Y-47495840D01*
X22823489Y-47448220D01*
X23061584Y-47448220D01*
X23204441Y-47495840D01*
X23966346Y-47924411D02*
X24109203Y-47972030D01*
X24156822Y-48019649D01*
X24204441Y-48114887D01*
X24204441Y-48257744D01*
X24156822Y-48352982D01*
X24109203Y-48400601D01*
X24013965Y-48448220D01*
X23633013Y-48448220D01*
X23633013Y-47448220D01*
X23966346Y-47448220D01*
X24061584Y-47495840D01*
X24109203Y-47543459D01*
X24156822Y-47638697D01*
X24156822Y-47733935D01*
X24109203Y-47829173D01*
X24061584Y-47876792D01*
X23966346Y-47924411D01*
X23633013Y-47924411D01*
X25156822Y-48448220D02*
X24585394Y-48448220D01*
X24871108Y-48448220D02*
X24871108Y-47448220D01*
X24775870Y-47591078D01*
X24680632Y-47686316D01*
X24585394Y-47733935D01*
X14154027Y-38623348D02*
X14915932Y-38623348D01*
X14534980Y-39004300D02*
X14534980Y-38242396D01*
X14254027Y-53823348D02*
X15015932Y-53823348D01*
X11687360Y-47313824D02*
X12496884Y-47313824D01*
X12592122Y-47266205D01*
X12639741Y-47218586D01*
X12687360Y-47123348D01*
X12687360Y-46932872D01*
X12639741Y-46837634D01*
X12592122Y-46790015D01*
X12496884Y-46742396D01*
X11687360Y-46742396D01*
X12639741Y-46313824D02*
X12687360Y-46170967D01*
X12687360Y-45932872D01*
X12639741Y-45837634D01*
X12592122Y-45790015D01*
X12496884Y-45742396D01*
X12401646Y-45742396D01*
X12306408Y-45790015D01*
X12258789Y-45837634D01*
X12211170Y-45932872D01*
X12163551Y-46123348D01*
X12115932Y-46218586D01*
X12068313Y-46266205D01*
X11973075Y-46313824D01*
X11877837Y-46313824D01*
X11782599Y-46266205D01*
X11734980Y-46218586D01*
X11687360Y-46123348D01*
X11687360Y-45885253D01*
X11734980Y-45742396D01*
X12163551Y-44980491D02*
X12211170Y-44837634D01*
X12258789Y-44790015D01*
X12354027Y-44742396D01*
X12496884Y-44742396D01*
X12592122Y-44790015D01*
X12639741Y-44837634D01*
X12687360Y-44932872D01*
X12687360Y-45313824D01*
X11687360Y-45313824D01*
X11687360Y-44980491D01*
X11734980Y-44885253D01*
X11782599Y-44837634D01*
X11877837Y-44790015D01*
X11973075Y-44790015D01*
X12068313Y-44837634D01*
X12115932Y-44885253D01*
X12163551Y-44980491D01*
X12163551Y-45313824D01*
X30082599Y-52604300D02*
X30273075Y-52604300D01*
X30368313Y-52651920D01*
X30463551Y-52747158D01*
X30511170Y-52937634D01*
X30511170Y-53270967D01*
X30463551Y-53461443D01*
X30368313Y-53556681D01*
X30273075Y-53604300D01*
X30082599Y-53604300D01*
X29987360Y-53556681D01*
X29892122Y-53461443D01*
X29844503Y-53270967D01*
X29844503Y-52937634D01*
X29892122Y-52747158D01*
X29987360Y-52651920D01*
X30082599Y-52604300D01*
X31368313Y-52937634D02*
X31368313Y-53604300D01*
X30939741Y-52937634D02*
X30939741Y-53461443D01*
X30987360Y-53556681D01*
X31082599Y-53604300D01*
X31225456Y-53604300D01*
X31320694Y-53556681D01*
X31368313Y-53509062D01*
X31701646Y-52937634D02*
X32082599Y-52937634D01*
X31844503Y-52604300D02*
X31844503Y-53461443D01*
X31892122Y-53556681D01*
X31987360Y-53604300D01*
X32082599Y-53604300D01*
X32415932Y-53223348D02*
X33177837Y-53223348D01*
X30082599Y-38004300D02*
X30273075Y-38004300D01*
X30368313Y-38051920D01*
X30463551Y-38147158D01*
X30511170Y-38337634D01*
X30511170Y-38670967D01*
X30463551Y-38861443D01*
X30368313Y-38956681D01*
X30273075Y-39004300D01*
X30082599Y-39004300D01*
X29987360Y-38956681D01*
X29892122Y-38861443D01*
X29844503Y-38670967D01*
X29844503Y-38337634D01*
X29892122Y-38147158D01*
X29987360Y-38051920D01*
X30082599Y-38004300D01*
X31368313Y-38337634D02*
X31368313Y-39004300D01*
X30939741Y-38337634D02*
X30939741Y-38861443D01*
X30987360Y-38956681D01*
X31082599Y-39004300D01*
X31225456Y-39004300D01*
X31320694Y-38956681D01*
X31368313Y-38909062D01*
X31701646Y-38337634D02*
X32082599Y-38337634D01*
X31844503Y-38004300D02*
X31844503Y-38861443D01*
X31892122Y-38956681D01*
X31987360Y-39004300D01*
X32082599Y-39004300D01*
X32415932Y-38623348D02*
X33177837Y-38623348D01*
X32796884Y-39004300D02*
X32796884Y-38242396D01*
X31787360Y-49580491D02*
X31930218Y-49628110D01*
X31977837Y-49675729D01*
X32025456Y-49770967D01*
X32025456Y-49913824D01*
X31977837Y-50009062D01*
X31930218Y-50056681D01*
X31834980Y-50104300D01*
X31454027Y-50104300D01*
X31454027Y-49104300D01*
X31787360Y-49104300D01*
X31882599Y-49151920D01*
X31930218Y-49199539D01*
X31977837Y-49294777D01*
X31977837Y-49390015D01*
X31930218Y-49485253D01*
X31882599Y-49532872D01*
X31787360Y-49580491D01*
X31454027Y-49580491D01*
X32454027Y-49723348D02*
X33215932Y-49723348D01*
X31787360Y-41980491D02*
X31930218Y-42028110D01*
X31977837Y-42075729D01*
X32025456Y-42170967D01*
X32025456Y-42313824D01*
X31977837Y-42409062D01*
X31930218Y-42456681D01*
X31834980Y-42504300D01*
X31454027Y-42504300D01*
X31454027Y-41504300D01*
X31787360Y-41504300D01*
X31882599Y-41551920D01*
X31930218Y-41599539D01*
X31977837Y-41694777D01*
X31977837Y-41790015D01*
X31930218Y-41885253D01*
X31882599Y-41932872D01*
X31787360Y-41980491D01*
X31454027Y-41980491D01*
X32454027Y-42123348D02*
X33215932Y-42123348D01*
X32834980Y-42504300D02*
X32834980Y-41742396D01*
X12192122Y-40504300D02*
X11715932Y-40504300D01*
X11668313Y-40980491D01*
X11715932Y-40932872D01*
X11811170Y-40885253D01*
X12049265Y-40885253D01*
X12144503Y-40932872D01*
X12192122Y-40980491D01*
X12239741Y-41075729D01*
X12239741Y-41313824D01*
X12192122Y-41409062D01*
X12144503Y-41456681D01*
X12049265Y-41504300D01*
X11811170Y-41504300D01*
X11715932Y-41456681D01*
X11668313Y-41409062D01*
X12573075Y-40837634D02*
X12811170Y-41504300D01*
X13049265Y-40837634D01*
X11673075Y-50151920D02*
X11577837Y-50104300D01*
X11434980Y-50104300D01*
X11292122Y-50151920D01*
X11196884Y-50247158D01*
X11149265Y-50342396D01*
X11101646Y-50532872D01*
X11101646Y-50675729D01*
X11149265Y-50866205D01*
X11196884Y-50961443D01*
X11292122Y-51056681D01*
X11434980Y-51104300D01*
X11530218Y-51104300D01*
X11673075Y-51056681D01*
X11720694Y-51009062D01*
X11720694Y-50675729D01*
X11530218Y-50675729D01*
X12149265Y-51104300D02*
X12149265Y-50104300D01*
X12720694Y-51104300D01*
X12720694Y-50104300D01*
X13196884Y-51104300D02*
X13196884Y-50104300D01*
X13434980Y-50104300D01*
X13577837Y-50151920D01*
X13673075Y-50247158D01*
X13720694Y-50342396D01*
X13768313Y-50532872D01*
X13768313Y-50675729D01*
X13720694Y-50866205D01*
X13673075Y-50961443D01*
X13577837Y-51056681D01*
X13434980Y-51104300D01*
X13196884Y-51104300D01*
X15681202Y-46451211D02*
X15824059Y-46498830D01*
X15871679Y-46546449D01*
X15919298Y-46641687D01*
X15919298Y-46784544D01*
X15871679Y-46879782D01*
X15824059Y-46927401D01*
X15728821Y-46975020D01*
X15347869Y-46975020D01*
X15347869Y-45975020D01*
X15681202Y-45975020D01*
X15776440Y-46022640D01*
X15824059Y-46070259D01*
X15871679Y-46165497D01*
X15871679Y-46260735D01*
X15824059Y-46355973D01*
X15776440Y-46403592D01*
X15681202Y-46451211D01*
X15347869Y-46451211D01*
X16776440Y-46975020D02*
X16776440Y-46451211D01*
X16728821Y-46355973D01*
X16633583Y-46308354D01*
X16443107Y-46308354D01*
X16347869Y-46355973D01*
X16776440Y-46927401D02*
X16681202Y-46975020D01*
X16443107Y-46975020D01*
X16347869Y-46927401D01*
X16300250Y-46832163D01*
X16300250Y-46736925D01*
X16347869Y-46641687D01*
X16443107Y-46594068D01*
X16681202Y-46594068D01*
X16776440Y-46546449D01*
X17109774Y-46308354D02*
X17490726Y-46308354D01*
X17252631Y-45975020D02*
X17252631Y-46832163D01*
X17300250Y-46927401D01*
X17395488Y-46975020D01*
X17490726Y-46975020D01*
X17681202Y-46308354D02*
X18062155Y-46308354D01*
X17824059Y-45975020D02*
X17824059Y-46832163D01*
X17871679Y-46927401D01*
X17966917Y-46975020D01*
X18062155Y-46975020D01*
X18776440Y-46927401D02*
X18681202Y-46975020D01*
X18490726Y-46975020D01*
X18395488Y-46927401D01*
X18347869Y-46832163D01*
X18347869Y-46451211D01*
X18395488Y-46355973D01*
X18490726Y-46308354D01*
X18681202Y-46308354D01*
X18776440Y-46355973D01*
X18824059Y-46451211D01*
X18824059Y-46546449D01*
X18347869Y-46641687D01*
X19252631Y-46975020D02*
X19252631Y-46308354D01*
X19252631Y-46498830D02*
X19300250Y-46403592D01*
X19347869Y-46355973D01*
X19443107Y-46308354D01*
X19538345Y-46308354D01*
X19776440Y-46308354D02*
X20014536Y-46975020D01*
X20252631Y-46308354D02*
X20014536Y-46975020D01*
X19919298Y-47213116D01*
X19871679Y-47260735D01*
X19776440Y-47308354D01*
X21966917Y-46879782D02*
X21919298Y-46927401D01*
X21776440Y-46975020D01*
X21681202Y-46975020D01*
X21538345Y-46927401D01*
X21443107Y-46832163D01*
X21395488Y-46736925D01*
X21347869Y-46546449D01*
X21347869Y-46403592D01*
X21395488Y-46213116D01*
X21443107Y-46117878D01*
X21538345Y-46022640D01*
X21681202Y-45975020D01*
X21776440Y-45975020D01*
X21919298Y-46022640D01*
X21966917Y-46070259D01*
X22395488Y-46975020D02*
X22395488Y-45975020D01*
X22824060Y-46975020D02*
X22824060Y-46451211D01*
X22776440Y-46355973D01*
X22681202Y-46308354D01*
X22538345Y-46308354D01*
X22443107Y-46355973D01*
X22395488Y-46403592D01*
X23728821Y-46975020D02*
X23728821Y-46451211D01*
X23681202Y-46355973D01*
X23585964Y-46308354D01*
X23395488Y-46308354D01*
X23300250Y-46355973D01*
X23728821Y-46927401D02*
X23633583Y-46975020D01*
X23395488Y-46975020D01*
X23300250Y-46927401D01*
X23252631Y-46832163D01*
X23252631Y-46736925D01*
X23300250Y-46641687D01*
X23395488Y-46594068D01*
X23633583Y-46594068D01*
X23728821Y-46546449D01*
X24205012Y-46975020D02*
X24205012Y-46308354D01*
X24205012Y-46498830D02*
X24252631Y-46403592D01*
X24300250Y-46355973D01*
X24395488Y-46308354D01*
X24490726Y-46308354D01*
X25252631Y-46308354D02*
X25252631Y-47117878D01*
X25205012Y-47213116D01*
X25157393Y-47260735D01*
X25062155Y-47308354D01*
X24919298Y-47308354D01*
X24824060Y-47260735D01*
X25252631Y-46927401D02*
X25157393Y-46975020D01*
X24966917Y-46975020D01*
X24871679Y-46927401D01*
X24824060Y-46879782D01*
X24776440Y-46784544D01*
X24776440Y-46498830D01*
X24824060Y-46403592D01*
X24871679Y-46355973D01*
X24966917Y-46308354D01*
X25157393Y-46308354D01*
X25252631Y-46355973D01*
X26109774Y-46927401D02*
X26014536Y-46975020D01*
X25824060Y-46975020D01*
X25728821Y-46927401D01*
X25681202Y-46832163D01*
X25681202Y-46451211D01*
X25728821Y-46355973D01*
X25824060Y-46308354D01*
X26014536Y-46308354D01*
X26109774Y-46355973D01*
X26157393Y-46451211D01*
X26157393Y-46546449D01*
X25681202Y-46641687D01*
X26585964Y-46975020D02*
X26585964Y-46308354D01*
X26585964Y-46498830D02*
X26633583Y-46403592D01*
X26681202Y-46355973D01*
X26776440Y-46308354D01*
X26871679Y-46308354D01*
X28490726Y-46975020D02*
X27919298Y-46975020D01*
X28205012Y-46975020D02*
X28205012Y-45975020D01*
X28109774Y-46117878D01*
X28014536Y-46213116D01*
X27919298Y-46260735D01*
X28871679Y-46689306D02*
X29347869Y-46689306D01*
X28776440Y-46975020D02*
X29109774Y-45975020D01*
X29443107Y-46975020D01*
%TO.C,RPM1*%
X47405444Y-76455980D02*
X47072111Y-75979790D01*
X46834016Y-76455980D02*
X46834016Y-75455980D01*
X47214968Y-75455980D01*
X47310206Y-75503600D01*
X47357825Y-75551219D01*
X47405444Y-75646457D01*
X47405444Y-75789314D01*
X47357825Y-75884552D01*
X47310206Y-75932171D01*
X47214968Y-75979790D01*
X46834016Y-75979790D01*
X47834016Y-76455980D02*
X47834016Y-75455980D01*
X48214968Y-75455980D01*
X48310206Y-75503600D01*
X48357825Y-75551219D01*
X48405444Y-75646457D01*
X48405444Y-75789314D01*
X48357825Y-75884552D01*
X48310206Y-75932171D01*
X48214968Y-75979790D01*
X47834016Y-75979790D01*
X48834016Y-76455980D02*
X48834016Y-75455980D01*
X49167349Y-76170266D01*
X49500682Y-75455980D01*
X49500682Y-76455980D01*
X50500682Y-76455980D02*
X49929254Y-76455980D01*
X50214968Y-76455980D02*
X50214968Y-75455980D01*
X50119730Y-75598838D01*
X50024492Y-75694076D01*
X49929254Y-75741695D01*
%TO.C,NEOpixel1*%
X-701869Y-81217580D02*
X-701869Y-80217580D01*
X-130440Y-81217580D01*
X-130440Y-80217580D01*
X345749Y-80693771D02*
X679082Y-80693771D01*
X821940Y-81217580D02*
X345749Y-81217580D01*
X345749Y-80217580D01*
X821940Y-80217580D01*
X1440987Y-80217580D02*
X1631463Y-80217580D01*
X1726701Y-80265200D01*
X1821940Y-80360438D01*
X1869559Y-80550914D01*
X1869559Y-80884247D01*
X1821940Y-81074723D01*
X1726701Y-81169961D01*
X1631463Y-81217580D01*
X1440987Y-81217580D01*
X1345749Y-81169961D01*
X1250511Y-81074723D01*
X1202892Y-80884247D01*
X1202892Y-80550914D01*
X1250511Y-80360438D01*
X1345749Y-80265200D01*
X1440987Y-80217580D01*
X2298130Y-80550914D02*
X2298130Y-81550914D01*
X2298130Y-80598533D02*
X2393368Y-80550914D01*
X2583844Y-80550914D01*
X2679082Y-80598533D01*
X2726701Y-80646152D01*
X2774320Y-80741390D01*
X2774320Y-81027104D01*
X2726701Y-81122342D01*
X2679082Y-81169961D01*
X2583844Y-81217580D01*
X2393368Y-81217580D01*
X2298130Y-81169961D01*
X3202892Y-81217580D02*
X3202892Y-80550914D01*
X3202892Y-80217580D02*
X3155273Y-80265200D01*
X3202892Y-80312819D01*
X3250511Y-80265200D01*
X3202892Y-80217580D01*
X3202892Y-80312819D01*
X3583844Y-81217580D02*
X4107654Y-80550914D01*
X3583844Y-80550914D02*
X4107654Y-81217580D01*
X4869559Y-81169961D02*
X4774320Y-81217580D01*
X4583844Y-81217580D01*
X4488606Y-81169961D01*
X4440987Y-81074723D01*
X4440987Y-80693771D01*
X4488606Y-80598533D01*
X4583844Y-80550914D01*
X4774320Y-80550914D01*
X4869559Y-80598533D01*
X4917178Y-80693771D01*
X4917178Y-80789009D01*
X4440987Y-80884247D01*
X5488606Y-81217580D02*
X5393368Y-81169961D01*
X5345749Y-81074723D01*
X5345749Y-80217580D01*
X6393368Y-81217580D02*
X5821939Y-81217580D01*
X6107654Y-81217580D02*
X6107654Y-80217580D01*
X6012416Y-80360438D01*
X5917178Y-80455676D01*
X5821939Y-80503295D01*
%TD*%
M02*
